<svg width="706" height="130" viewBox="0 0 706 130" fill="none" xmlns="http://www.w3.org/2000/svg">
<g clip-path="url(#clip0)">
<rect x="145" y="60" width="421" height="6" fill="#FE4957"/>
<rect x="443" y="30" width="8" height="8" fill="#C4C4C4"/>
<rect x="476" y="86" width="8" height="8" fill="#C4C4C4"/>
<rect x="223" y="84" width="8" height="8" fill="#C4C4C4"/>
<rect x="553.5" y="86.5" width="7" height="7" stroke="white"/>
<rect x="146.5" y="81.5" width="7" height="7" stroke="white"/>
<rect x="256" y="30" width="8" height="8" fill="#C4C4C4"/>
<path d="M146.368 46.79L149.834 42.1689C150.035 41.9046 150.189 41.6312 150.299 41.3486C150.413 41.0615 150.47 40.7949 150.47 40.5488V40.5352C150.47 40.1387 150.354 39.8311 150.121 39.6123C149.889 39.3936 149.558 39.2842 149.13 39.2842C148.724 39.2842 148.396 39.4049 148.146 39.6465C147.895 39.8835 147.742 40.2207 147.688 40.6582V40.665H146.245V40.6582C146.327 40.0885 146.493 39.6032 146.744 39.2021C146.999 38.7965 147.327 38.4889 147.729 38.2793C148.13 38.0651 148.592 37.958 149.116 37.958C149.709 37.958 150.215 38.0605 150.634 38.2656C151.053 38.4661 151.372 38.7601 151.591 39.1475C151.81 39.5348 151.919 40.002 151.919 40.5488V40.5557C151.919 40.9066 151.846 41.2734 151.7 41.6562C151.554 42.0391 151.352 42.4082 151.092 42.7637L148.214 46.6738H151.974V48H146.368V46.79ZM155.904 48.1025C155.321 48.1025 154.822 47.9863 154.407 47.7539C153.993 47.5169 153.676 47.1751 153.457 46.7285C153.243 46.2773 153.136 45.735 153.136 45.1016V45.0947C153.136 44.7256 153.179 44.3382 153.266 43.9326C153.352 43.527 153.478 43.1283 153.642 42.7363C153.669 42.668 153.699 42.6019 153.73 42.5381C153.762 42.4697 153.794 42.4036 153.826 42.3398L155.986 38.0605H157.49L154.954 43.0166L154.961 42.7705C155.075 42.5563 155.241 42.39 155.46 42.2715C155.679 42.153 155.934 42.0938 156.226 42.0938C156.741 42.0938 157.183 42.21 157.552 42.4424C157.921 42.6748 158.201 43.0143 158.393 43.4609C158.584 43.903 158.68 44.4362 158.68 45.0605V45.0674C158.68 45.7054 158.57 46.2523 158.352 46.708C158.137 47.1637 157.821 47.5101 157.401 47.7471C156.987 47.984 156.488 48.1025 155.904 48.1025ZM155.904 46.7627C156.346 46.7627 156.686 46.626 156.923 46.3525C157.164 46.0791 157.285 45.6895 157.285 45.1836V45.1768C157.285 44.6208 157.16 44.1924 156.909 43.8916C156.659 43.5863 156.301 43.4336 155.836 43.4336C155.421 43.4336 155.1 43.5863 154.872 43.8916C154.644 44.1969 154.53 44.6276 154.53 45.1836V45.1904C154.53 45.6963 154.649 46.0859 154.886 46.3594C155.127 46.6283 155.467 46.7627 155.904 46.7627Z" fill="white"/>
<path d="M534.218 38.0605H535.804L538.723 45.1768L537.82 46.291L534.218 38.0605ZM539.242 45.9424C539.064 46.4255 538.862 46.8265 538.634 47.1455C538.41 47.46 538.144 47.6992 537.834 47.8633C537.529 48.0228 537.169 48.1025 536.754 48.1025H535.599V46.7285H536.754C536.964 46.7285 537.148 46.6784 537.308 46.5781C537.472 46.4779 537.615 46.332 537.738 46.1406C537.866 45.9447 537.982 45.6986 538.087 45.4023L540.63 38.0605H542.147L539.242 45.9424ZM544.301 42.8184H547.479C547.78 42.8184 548.045 42.7477 548.272 42.6064C548.5 42.4652 548.676 42.2646 548.799 42.0049C548.926 41.7451 548.99 41.4466 548.99 41.1094C548.99 40.7676 548.926 40.4668 548.799 40.207C548.676 39.9473 548.5 39.7467 548.272 39.6055C548.045 39.4596 547.78 39.3867 547.479 39.3867H544.301V38.0605H547.432C548.024 38.0605 548.546 38.1882 548.997 38.4434C549.448 38.694 549.797 39.0495 550.043 39.5098C550.294 39.9701 550.419 40.5033 550.419 41.1094C550.419 41.7155 550.294 42.2487 550.043 42.709C549.797 43.1647 549.448 43.5179 548.997 43.7686C548.546 44.0192 548.024 44.1445 547.432 44.1445H544.301V42.8184ZM543.583 38.0605H544.978V48H543.583V38.0605ZM551.246 46.5371H552.709V48H551.246V46.5371ZM557.364 48.1025C556.863 48.1025 556.416 48.0046 556.024 47.8086C555.637 47.6126 555.32 47.3278 555.074 46.9541C554.833 46.5804 554.671 46.1315 554.589 45.6074V45.6006H555.983V45.6074C556.034 45.972 556.179 46.2568 556.421 46.4619C556.662 46.6624 556.977 46.7627 557.364 46.7627C557.811 46.7627 558.155 46.6146 558.396 46.3184C558.643 46.0176 558.766 45.596 558.766 45.0537V44.2197C558.766 43.682 558.643 43.265 558.396 42.9688C558.155 42.668 557.811 42.5176 557.364 42.5176C557.123 42.5176 556.89 42.5859 556.667 42.7227C556.444 42.8594 556.248 43.0508 556.079 43.2969H554.808V38.0605H559.873V39.3867H556.202V41.6221C556.375 41.4808 556.569 41.3714 556.783 41.2939C556.997 41.2165 557.216 41.1777 557.439 41.1777C558.014 41.1777 558.504 41.2962 558.909 41.5332C559.319 41.7702 559.629 42.1165 559.839 42.5723C560.053 43.028 560.16 43.5771 560.16 44.2197V45.0537C560.16 45.6963 560.051 46.2454 559.832 46.7012C559.613 47.1569 559.294 47.5055 558.875 47.7471C558.456 47.984 557.952 48.1025 557.364 48.1025Z" fill="white"/>
<rect x="103" y="48" width="18" height="12" fill="#C4C4C4"/>
<rect x="36" y="48" width="18" height="12" fill="#FE4957"/>
<rect x="653" y="48" width="18" height="12" fill="#FE4957"/>
<rect x="586" y="48" width="18" height="12" fill="#C4C4C4"/>
<rect x="103" y="66" width="18" height="12" fill="#C4C4C4"/>
<rect x="36" y="66" width="18" height="12" fill="#FE4957"/>
<rect x="653" y="66" width="18" height="12" fill="#FE4957"/>
<rect x="586" y="66" width="18" height="12" fill="#C4C4C4"/>
</g>
<defs>
<clipPath id="clip0">
<rect width="706" height="130" fill="white"/>
</clipPath>
</defs>
</svg>
